<?xml version="1.0" standalone="no"?>
<!DOCTYPE svg PUBLIC "-//W3C//DTD SVG 20010904//EN"
 "http://www.w3.org/TR/2001/REC-SVG-20010904/DTD/svg10.dtd">
<svg version="1.0" xmlns="http://www.w3.org/2000/svg"
 width="500.000000pt" height="500.000000pt" viewBox="0 0 500.000000 500.000000"
 preserveAspectRatio="xMidYMid meet">
<metadata>
Created by potrace 1.16, written by Peter Selinger 2001-2019
</metadata>
<g transform="translate(0.000000,500.000000) scale(0.100000,-0.100000)"
fill="#000000" stroke="none">
<path d="M2101 3885 c-62 -46 -199 -208 -269 -318 -20 -32 -60 -84 -87 -115
-68 -77 -99 -121 -112 -160 -13 -36 -9 -53 19 -94 10 -14 18 -39 18 -54 0 -15
16 -60 35 -101 19 -41 35 -78 35 -83 0 -5 15 -21 34 -35 19 -14 39 -38 44 -53
11 -32 112 -137 237 -246 181 -157 231 -235 260 -400 28 -157 15 -225 -51
-252 -25 -11 -34 -20 -34 -38 0 -28 -21 -36 -100 -36 -52 0 -59 3 -92 38 -92
97 -178 236 -178 287 0 15 -10 24 -32 30 -30 9 -34 15 -39 56 -4 26 -15 59
-25 75 l-19 27 -8 -34 c-5 -19 -11 -55 -14 -81 -4 -39 -9 -47 -26 -50 -20 -3
-22 -10 -25 -86 l-3 -84 -60 4 c-60 3 -60 3 -54 -22 3 -14 14 -43 25 -65 10
-22 25 -56 34 -76 30 -64 180 -252 241 -302 74 -59 172 -93 240 -82 125 18
282 95 364 177 56 56 129 189 152 276 l13 52 56 0 55 0 25 -62 c45 -114 186
-300 282 -373 37 -28 79 -48 123 -60 62 -17 70 -17 143 -2 86 19 213 77 283
131 114 87 229 348 229 522 l0 44 54 0 53 0 32 -99 c33 -102 42 -121 103 -228
62 -107 198 -263 229 -263 9 0 19 -6 22 -14 3 -8 27 -24 52 -35 42 -19 50 -19
81 -6 85 35 196 142 281 270 94 141 140 246 128 292 l-6 26 -37 -35 c-53 -51
-92 -68 -185 -78 -292 -34 -342 4 -395 302 -22 123 -25 174 -26 368 -1 206 1
233 23 315 29 112 74 224 118 293 28 44 45 58 97 83 58 27 72 30 152 27 121
-4 117 7 110 -278 -3 -124 -8 -254 -11 -290 l-6 -65 35 55 c80 124 134 308
155 524 15 151 14 211 -3 225 -8 7 -18 25 -21 41 -12 55 -112 175 -191 230
-34 24 -48 28 -80 23 -135 -21 -248 -124 -374 -342 -45 -80 -105 -181 -132
-225 -52 -87 -126 -270 -153 -376 -38 -153 -46 -562 -11 -582 12 -7 16 -25 16
-73 l0 -65 -60 0 -60 0 0 54 c0 30 -3 56 -8 58 -4 2 -25 56 -46 121 -21 64
-46 127 -55 140 -10 12 -20 30 -24 40 -3 9 -11 17 -16 17 -5 0 -21 19 -35 43
-32 53 -156 182 -314 327 -69 63 -132 130 -143 152 -23 45 -49 204 -49 300 0
60 3 69 27 88 23 18 38 20 117 18 l90 -3 63 -75 c35 -41 78 -106 97 -143 22
-45 35 -63 39 -52 5 11 21 15 59 15 49 0 54 -2 66 -30 19 -41 48 -40 60 3 5
17 26 74 46 126 21 51 35 100 33 110 -20 62 -37 96 -63 124 -17 17 -50 57 -74
87 -24 30 -63 74 -87 97 -39 36 -48 41 -70 32 -42 -16 -144 -11 -165 8 -17 15
-21 14 -74 -22 -60 -42 -168 -167 -262 -303 -31 -46 -85 -115 -120 -155 -99
-115 -123 -182 -82 -234 11 -14 20 -39 20 -55 0 -17 6 -42 14 -56 8 -15 28
-56 44 -92 17 -36 39 -71 51 -77 11 -7 29 -30 40 -50 24 -48 107 -134 239
-248 108 -94 191 -187 218 -244 23 -49 54 -206 54 -279 0 -73 -18 -108 -67
-128 -24 -11 -33 -21 -33 -38 0 -28 -21 -36 -101 -36 -53 0 -59 3 -90 38 -98
108 -162 208 -174 273 -5 29 -13 37 -38 45 -29 8 -33 14 -39 57 -3 27 -15 60
-24 75 l-18 27 -9 -40 c-5 -22 -11 -59 -14 -82 -4 -33 -9 -42 -26 -45 -20 -3
-22 -10 -25 -90 l-3 -88 -51 0 c-57 0 -77 16 -78 63 0 23 -4 27 -30 27 -25 0
-30 4 -30 23 0 55 -35 220 -67 315 -31 95 -70 171 -99 197 -7 6 -23 28 -37 50
-33 52 -143 165 -282 291 -129 117 -139 127 -166 178 -24 46 -49 191 -49 293
0 66 2 73 26 92 22 18 41 21 113 21 85 0 88 -1 118 -32 63 -68 132 -172 154
-233 9 -26 12 -28 20 -12 8 13 23 17 62 17 48 0 53 -2 65 -30 18 -39 49 -40
58 -2 3 15 24 73 47 130 l40 102 -18 43 c-24 58 -21 54 -104 153 -105 126
-149 164 -179 153 -39 -15 -148 -11 -162 6 -18 21 -21 20 -89 -30z"/>
<path d="M1088 3905 c-3 -3 -83 -8 -178 -10 -95 -3 -178 -9 -184 -13 -6 -5
-36 -12 -66 -16 -94 -11 -266 -54 -319 -79 -43 -21 -146 -134 -167 -182 -7
-17 -21 -38 -32 -48 -20 -18 -20 -18 3 -43 12 -13 32 -24 44 -24 12 0 29 -7
37 -15 16 -16 25 -17 180 -19 73 -1 106 -5 119 -16 16 -13 17 -36 11 -350 -8
-419 -15 -507 -39 -525 -17 -13 -17 -14 -1 -23 16 -9 18 -40 22 -368 4 -324 6
-361 22 -379 9 -11 25 -35 36 -52 19 -34 34 -38 92 -27 46 9 65 63 71 204 l6
115 53 3 52 3 0 225 0 225 163 -1 c190 -2 240 8 262 49 16 33 33 41 80 41 40
0 51 13 57 66 6 44 -9 74 -36 74 -13 0 -16 11 -16 60 0 59 1 60 28 61 l27 1
-32 10 c-23 8 -62 6 -145 -6 -135 -20 -340 -32 -391 -22 -37 7 -37 7 -37 56 0
55 44 414 59 480 5 23 14 47 20 53 8 8 46 8 133 -1 68 -7 153 -12 191 -12 61
0 67 2 67 20 0 11 8 23 18 27 9 3 43 32 74 64 31 33 64 59 73 59 9 0 25 9 36
19 17 16 21 31 20 90 -1 92 -18 159 -42 166 -10 4 -19 11 -19 16 0 22 -72 37
-206 43 -77 3 -143 4 -146 1z"/>
</g>
</svg>
